<svg width="201" height="56" viewBox="0 0 201 56" fill="none" xmlns="http://www.w3.org/2000/svg">
<path fill-rule="evenodd" clip-rule="evenodd" d="M10.2102 6.99023C3.81022 13.2202 0.613461 20.2171 0.620128 27.9805C0.706583 33.0329 2.06517 37.9826 4.5702 42.3711C10.7302 51.4211 18.6701 55.9438 28.3901 55.9404C32.2085 55.9559 35.991 55.2032 39.5127 53.7275C43.0344 52.2519 46.2234 50.0834 48.8901 47.3506C53.9701 41.2839 56.5101 35.1605 56.5101 28.9805V26.6807C56.3343 23.1845 55.4855 19.7555 54.0101 16.5811C52.0188 12.1974 48.9544 8.38657 45.1002 5.50098C39.6702 1.96764 34.8202 0.204271 30.5502 0.210938H26.5702C21.6202 0.210938 16.1669 2.47023 10.2102 6.99023ZM14.0001 19.7207C15.4401 15.5307 18.3135 13.434 22.6201 13.4307H34.6702L36.7601 13.6006L38.8202 14.2705C41.9002 15.6305 43.4435 18.4937 43.4502 22.8604V33.9404C43.4502 37.4104 42.5101 39.894 40.6301 41.3906C39.8001 42.6006 36.6035 43.2076 31.0402 43.2109C23.7802 43.4109 19.4801 43.1311 18.1401 42.3711C15.1601 40.8011 13.6702 37.6674 13.6702 32.9707V24.3506C13.6513 22.8008 13.7616 21.2522 14.0001 19.7207ZM17.6602 18.2305C16.7702 18.2305 16.3269 20.9836 16.3302 26.4902V30.1504C16.2923 32.3583 16.3991 34.5668 16.6502 36.7607C17.3602 39.4007 19.7902 40.7207 23.9402 40.7207C26.4402 40.6107 28.8002 40.5508 31.0402 40.5508H35.8402C38.6902 40.5508 40.3969 38.5107 40.9602 34.4307V22.7002C40.9602 18.2902 38.8635 16.0875 34.6702 16.0908H23.1002C20.3602 16.0908 18.5402 16.8005 17.6602 18.2305ZM36.4901 18.5508C37.5701 18.5508 38.2401 19.2205 38.4901 20.5605C38.0201 21.6605 37.4202 22.2109 36.6802 22.2109C35.9402 22.2109 35.3202 21.6605 34.8302 20.5605C34.8259 20.0837 34.99 19.6206 35.2937 19.2529C35.5974 18.8852 36.021 18.6367 36.4901 18.5508ZM21.4502 26.001C22.7902 22.481 25.1669 20.7207 28.5802 20.7207H28.7401C30.3389 20.7448 31.8906 21.2657 33.1802 22.2109C35.2802 24.0009 36.3202 25.9205 36.3202 27.9805V28.3311C36.3202 31.9611 34.3435 34.4909 30.3901 35.9209H27.0902C23.0002 34.5309 20.9569 32.0576 20.9602 28.501C20.9789 27.6457 21.1447 26.8 21.4502 26.001ZM23.5902 28.501C23.5957 29.0688 23.7147 29.6292 23.9402 30.1504C24.2942 31.1337 24.9478 31.9812 25.809 32.5732C26.6701 33.1653 27.6953 33.4718 28.7401 33.4502C31.5201 33.4502 33.1702 31.7511 33.7002 28.3311C33.7421 27.9362 33.6836 27.5371 33.5302 27.1709C32.7202 24.6209 31.1235 23.3473 28.7401 23.3506H28.5802C25.6502 23.3506 23.9869 25.0676 23.5902 28.501ZM76.6401 14.1904C74.5164 18.0428 73.2764 22.32 73.0101 26.7109V29.6904L73.6602 34.291C74.5797 37.8977 76.1486 41.3063 78.2902 44.3506C84.3902 52.0406 91.9135 55.8873 100.86 55.8906C108.71 55.8906 115.627 52.7569 121.61 46.4902C126.343 40.7802 128.71 34.6835 128.71 28.2002C128.654 22.4264 126.871 16.8022 123.59 12.0508C117.524 4.14078 109.947 0.187096 100.86 0.19043C90.8501 0.19043 82.7768 4.8571 76.6401 14.1904ZM115.03 18.3105C116.34 19.2105 116.997 22.2373 117 27.3906V29.6904C117 33.3204 116.677 35.9573 116.03 37.6006C115.41 39.1339 113.377 39.9004 109.93 39.9004H95.0902C90.7902 39.9004 88.0436 39.6308 86.8502 39.0908C85.3169 38.2608 84.5502 34.7372 84.5502 28.5205V28.3604C84.7102 22.8704 85.1436 19.9074 85.8502 19.4707C85.8502 18.0507 90.4635 17.3377 99.6902 17.3311C108.917 17.3244 114.03 17.6505 115.03 18.3105ZM97.5502 32.8008H98.0702L105.79 28.5205C105.59 28.2538 102.897 26.7744 97.7102 24.0811H97.5502V32.8008ZM152.36 9.18066C147.65 15.0307 145.294 20.7909 145.29 26.4609V29.9307C145.491 32.8194 146.16 35.6567 147.27 38.3311C148.17 41.1811 150.417 44.4774 154.01 48.2207C159.743 53.2807 166.057 55.8105 172.95 55.8105H173.27C177.256 55.6833 181.18 54.7796 184.82 53.1504C190.627 50.3191 195.319 45.6267 198.15 39.8203C199.588 36.6436 200.474 33.2451 200.77 29.7705V27.1406C200.77 26.5806 200.66 25.3803 200.45 23.5303C200.271 21.8237 199.833 20.1553 199.15 18.5811C198.19 15.1111 195.553 11.2109 191.24 6.88086C185.42 2.38086 179.593 0.130859 173.76 0.130859H172.46C165.24 0.130859 158.54 3.14733 152.36 9.18066ZM164.88 15.7607C166.97 16.0507 168.02 17.0502 168.02 18.7402V18.9102C167.48 20.5502 166.48 21.3711 165.04 21.3711C164.3 21.4582 163.556 21.2474 162.971 20.7861C162.386 20.3249 162.008 19.6499 161.92 18.9102V17.9004C162.14 17.2866 162.54 16.754 163.069 16.3721C163.597 15.9901 164.228 15.7771 164.88 15.7607ZM179.86 23.1904H181.51C182.364 23.3569 183.194 23.6295 183.98 24.001C184.772 24.606 185.421 25.3785 185.879 26.2637C186.337 27.1489 186.594 28.125 186.63 29.1211V39.501H181.67C181.627 39.5013 181.585 39.4922 181.545 39.4756C181.505 39.459 181.47 39.4351 181.44 39.4043C181.41 39.3735 181.386 39.337 181.371 39.2969C181.356 39.2568 181.349 39.2138 181.35 39.1709V30.7705C181.35 28.4605 180.42 27.3041 178.56 27.3008C176.95 27.3008 176.01 28.4572 175.74 30.7705V39.1709C175.746 39.2157 175.742 39.2608 175.728 39.3037C175.714 39.3466 175.689 39.386 175.657 39.418C175.625 39.45 175.587 39.4739 175.544 39.4883C175.501 39.5026 175.455 39.5073 175.41 39.501H170.81C170.723 39.5007 170.639 39.4651 170.577 39.4033C170.515 39.3415 170.48 39.2583 170.48 39.1709V23.5107H175.74V25.1602H176.09C177.043 24.039 178.395 23.3328 179.86 23.1904ZM162.57 23.5107H167.18L167.5 24.1602V39.1709C167.508 39.215 167.505 39.26 167.491 39.3027C167.478 39.3455 167.455 39.3849 167.424 39.417C167.393 39.4491 167.354 39.4727 167.312 39.4873C167.27 39.5019 167.225 39.5071 167.18 39.501H162.57C162.527 39.5013 162.485 39.4922 162.445 39.4756C162.405 39.459 162.37 39.4351 162.34 39.4043C162.31 39.3735 162.286 39.337 162.271 39.2969C162.256 39.2568 162.249 39.2138 162.25 39.1709V23.8408C162.25 23.7549 162.283 23.672 162.343 23.6104C162.403 23.5487 162.484 23.5131 162.57 23.5107Z" fill="white"/>
</svg>
