<svg width="201" height="57" viewBox="0 0 201 57" fill="none" xmlns="http://www.w3.org/2000/svg">
<path fill-rule="evenodd" clip-rule="evenodd" d="M10.1701 7.59961C3.77005 13.8296 0.5733 20.8265 0.579966 28.5898C0.666422 33.6422 2.02501 38.592 4.53004 42.9805C10.69 52.0305 18.63 56.5531 28.35 56.5498C32.1683 56.5652 35.9508 55.8126 39.4725 54.3369C42.9942 52.8612 46.1832 50.6928 48.85 47.96C53.93 41.8933 56.47 35.7698 56.47 29.5898V27.29C56.2942 23.7939 55.4453 20.3649 53.97 17.1904C51.9786 12.8068 48.9143 8.99594 45.0601 6.11035C39.6301 2.57702 34.78 0.813646 30.51 0.820312H26.53C21.58 0.820312 16.1267 3.07961 10.1701 7.59961ZM13.96 20.3301C15.4 16.1401 18.2733 14.0434 22.58 14.04H34.63L36.72 14.21L38.78 14.8799C41.86 16.2399 43.4034 19.1031 43.41 23.4697V34.5498C43.41 38.0198 42.47 40.5033 40.59 42C39.76 43.21 36.5633 43.817 31 43.8203C23.74 44.0203 19.44 43.7405 18.1 42.9805C15.12 41.4105 13.63 38.2767 13.63 33.5801V24.96C13.6111 23.4101 13.7214 21.8616 13.96 20.3301ZM17.62 18.8398C16.73 18.8398 16.2867 21.5929 16.29 27.0996V30.7598C16.2521 32.9677 16.359 35.1761 16.61 37.3701C17.32 40.0101 19.75 41.3301 23.9 41.3301C26.4 41.2201 28.76 41.1602 31 41.1602H35.8001C38.6501 41.1602 40.3567 39.12 40.9201 35.04V23.3096C40.9201 18.8996 38.8233 16.6969 34.63 16.7002H23.0601C20.3201 16.7002 18.5 17.4098 17.62 18.8398ZM36.45 19.1602C37.53 19.1602 38.2 19.8299 38.45 21.1699C37.98 22.2699 37.38 22.8203 36.64 22.8203C35.9 22.8203 35.2801 22.2699 34.7901 21.1699C34.7858 20.6931 34.9499 20.23 35.2536 19.8623C35.5572 19.4946 35.9809 19.2461 36.45 19.1602ZM21.41 26.6104C22.75 23.0904 25.1267 21.3301 28.54 21.3301H28.7C30.2987 21.3542 31.8504 21.8751 33.14 22.8203C35.24 24.6103 36.28 26.5298 36.28 28.5898V28.9404C36.28 32.5704 34.3033 35.1003 30.35 36.5303H27.0501C22.9601 35.1403 20.9167 32.667 20.9201 29.1104C20.9388 28.2551 21.1045 27.4094 21.41 26.6104ZM23.5501 29.1104C23.5556 29.6782 23.6745 30.2386 23.9 30.7598C24.254 31.743 24.9077 32.5906 25.7688 33.1826C26.63 33.7747 27.6551 34.0812 28.7 34.0596C31.48 34.0596 33.13 32.3604 33.66 28.9404C33.7019 28.5456 33.6434 28.1465 33.49 27.7803C32.68 25.2303 31.0833 23.9566 28.7 23.96H28.54C25.61 23.96 23.9467 25.677 23.5501 29.1104ZM76.6 14.7998C74.4762 18.6522 73.2363 22.9294 72.97 27.3203V30.2998L73.62 34.9004C74.5395 38.5071 76.1085 41.9157 78.25 44.96C84.35 52.65 91.8733 56.4967 100.82 56.5C108.67 56.5 115.587 53.3663 121.57 47.0996C126.303 41.3896 128.67 35.2929 128.67 28.8096C128.614 23.0358 126.831 17.4116 123.55 12.6602C117.483 4.75016 109.907 0.796471 100.82 0.799805C90.81 0.799805 82.7366 5.46647 76.6 14.7998ZM114.99 18.9199C116.3 19.8199 116.957 22.8467 116.96 28V30.2998C116.96 33.9298 116.637 36.5666 115.99 38.21C115.37 39.7433 113.337 40.5098 109.89 40.5098H95.0501C90.7501 40.5098 88.0034 40.2402 86.8101 39.7002C85.2767 38.8702 84.51 35.3465 84.51 29.1299V28.9697C84.67 23.4797 85.1034 20.5167 85.8101 20.0801C85.8101 18.6601 90.4234 17.9471 99.65 17.9404C108.877 17.9338 113.99 18.2599 114.99 18.9199ZM97.51 33.4102H98.03L105.75 29.1299C105.55 28.8632 102.857 27.3838 97.6701 24.6904H97.51V33.4102ZM152.32 9.79004C147.61 15.64 145.253 21.4003 145.25 27.0703V30.54C145.451 33.4288 146.119 36.2661 147.23 38.9404C148.13 41.7904 150.377 45.0867 153.97 48.8301C159.703 53.8901 166.017 56.4199 172.91 56.4199H173.23C177.216 56.2926 181.14 55.3889 184.78 53.7598C190.586 50.9285 195.279 46.2361 198.11 40.4297C199.548 37.253 200.434 33.8545 200.73 30.3799V27.75C200.73 27.19 200.62 25.9896 200.41 24.1396C200.231 22.4331 199.793 20.7646 199.11 19.1904C198.15 15.7204 195.513 11.8202 191.2 7.49023C185.38 2.99023 179.553 0.740234 173.72 0.740234H172.42C165.2 0.740234 158.5 3.75671 152.32 9.79004ZM164.84 16.3701C166.93 16.6601 167.98 17.6596 167.98 19.3496V19.5195C167.44 21.1595 166.44 21.9805 165 21.9805C164.26 22.0676 163.516 21.8568 162.931 21.3955C162.346 20.9342 161.968 20.2593 161.88 19.5195V18.5098C162.1 17.896 162.5 17.3634 163.028 16.9814C163.557 16.5995 164.188 16.3864 164.84 16.3701ZM179.82 23.7998H181.47C182.324 23.9663 183.153 24.2389 183.94 24.6104C184.732 25.2154 185.38 25.9878 185.839 26.873C186.297 27.7583 186.553 28.7344 186.59 29.7305V40.1104H181.63C181.587 40.1107 181.545 40.1016 181.505 40.085C181.465 40.0684 181.429 40.0445 181.4 40.0137C181.37 39.9828 181.346 39.9464 181.331 39.9062C181.315 39.8661 181.308 39.8232 181.31 39.7803V31.3799C181.31 29.0699 180.38 27.9135 178.52 27.9102C176.91 27.9102 175.97 29.0665 175.7 31.3799V39.7803C175.706 39.8251 175.702 39.8702 175.688 39.9131C175.674 39.956 175.649 39.9953 175.617 40.0273C175.585 40.0593 175.546 40.0833 175.503 40.0977C175.461 40.112 175.415 40.1167 175.37 40.1104H170.77C170.683 40.1101 170.599 40.0745 170.537 40.0127C170.475 39.9509 170.44 39.8677 170.44 39.7803V24.1201H175.7V25.7695H176.05C177.003 24.6483 178.355 23.9421 179.82 23.7998ZM162.53 24.1201H167.14L167.46 24.7695V39.7803C167.467 39.8244 167.464 39.8694 167.451 39.9121C167.438 39.9549 167.415 39.9942 167.384 40.0264C167.353 40.0585 167.314 40.0821 167.272 40.0967C167.23 40.1113 167.184 40.1165 167.14 40.1104H162.53C162.487 40.1107 162.445 40.1016 162.405 40.085C162.365 40.0684 162.329 40.0445 162.299 40.0137C162.27 39.9828 162.246 39.9464 162.231 39.9062C162.215 39.8661 162.208 39.8232 162.21 39.7803V24.4502C162.21 24.3643 162.243 24.2814 162.303 24.2197C162.363 24.1581 162.444 24.1225 162.53 24.1201Z" fill="#080846"/>
</svg>
