<svg width="77" height="19" viewBox="0 0 77 19" fill="none" xmlns="http://www.w3.org/2000/svg">
<g clip-path="url(#clip0_265_34)">
<path d="M36.3397 8.24999V14.2503H33.6533V8.48582C33.6533 7.94899 33.5003 7.53215 33.1945 7.23736C32.8897 6.94257 32.4598 6.79465 31.9026 6.79465C31.0096 6.79465 30.2717 7.1453 29.6846 7.84245V14.2503H26.9981V4.74767H29.0525L29.3926 5.76444C30.1476 4.92972 31.1957 4.51184 32.5336 4.51184C33.7142 4.51184 34.6425 4.84283 35.3205 5.50585C35.9996 6.16784 36.3376 7.08324 36.3376 8.24999H36.3397Z" fill="white"/>
<path d="M46.8609 5.80995C45.9786 4.9442 44.7851 4.51184 43.2793 4.51184C42.2217 4.51184 41.3084 4.71664 40.5416 5.12211C39.7748 5.52757 39.1812 6.10578 38.7609 6.85361C38.3396 7.60145 38.13 8.47961 38.13 9.48914C38.13 11.05 38.5888 12.2726 39.5042 13.158C40.4207 14.0434 41.6987 14.4861 43.3392 14.4861C45.4022 14.4861 46.9336 13.7383 47.9389 12.2436L45.7006 11.3386C45.4439 11.6664 45.1284 11.9292 44.7541 12.1257C44.3819 12.3222 43.9167 12.4205 43.3606 12.4205C42.4912 12.4205 41.8228 12.1691 41.3554 11.6633C41.0314 11.3127 40.8186 10.8576 40.7191 10.2949H48.1229C48.1485 10.1242 48.1656 9.96701 48.1731 9.82324C48.1806 9.67946 48.1838 9.54189 48.1838 9.41053C48.1838 7.87555 47.7432 6.6757 46.862 5.80995H46.8609ZM40.7565 8.52512C40.8068 8.29653 40.8774 8.08346 40.9693 7.88693C41.1811 7.43388 41.4784 7.09048 41.8666 6.85361C42.2527 6.61778 42.7243 6.49986 43.2804 6.49986C43.782 6.49986 44.2087 6.60537 44.5616 6.81431C44.9145 7.02428 45.183 7.33252 45.3648 7.73798C45.4696 7.97071 45.5444 8.23344 45.5883 8.52512H40.7565Z" fill="white"/>
<path d="M59.1937 14.2503H56.0389L53.7802 11.1027L51.5012 14.2503H48.3678L52.0092 9.37122L48.5506 4.74871H51.6638L53.7802 7.65937L55.8966 4.74871H59.0109L55.5715 9.37122L59.1937 14.2503Z" fill="white"/>
<path d="M67.6584 14.0144C66.9258 14.3289 66.112 14.4861 65.2169 14.4861C64.064 14.4861 63.1731 14.182 62.5411 13.5707C61.9112 12.9615 61.5947 12.0988 61.5947 10.9838V6.95084H59.8857V4.74767H61.5947V2.24971L64.2811 1.60014V4.74767H67.1707V6.95084H64.2811V10.8266C64.2811 11.2599 64.403 11.593 64.6479 11.8288C64.8928 12.0647 65.2457 12.1826 65.7056 12.1826C65.9238 12.1826 66.1409 12.1578 66.3569 12.104C66.575 12.0523 66.7921 11.9933 67.0082 11.9281L67.6595 14.0134L67.6584 14.0144Z" fill="white"/>
<path d="M71.9126 4.74871H69.2262V14.2513H71.9126V4.74871Z" fill="white"/>
<path d="M72.1565 1.97458C72.1565 2.45969 72.0175 2.83619 71.7394 3.10512C71.4613 3.37405 71.071 3.50852 70.5694 3.50852C70.0679 3.50852 69.6764 3.37405 69.3984 3.10512C69.1214 2.83619 68.9824 2.45969 68.9824 1.97458C68.9824 1.48947 69.1214 1.11296 69.3984 0.844031C69.6764 0.575099 70.0668 0.440634 70.5694 0.440634C71.0721 0.440634 71.4613 0.575099 71.7394 0.844031C72.0175 1.11296 72.1565 1.48947 72.1565 1.97458Z" fill="white"/>
<path d="M77 0.223419V14.2503H74.3136V0.892645L77 0.223419Z" fill="white"/>
<path d="M21.6317 11.7244C21.6317 11.7409 21.6317 11.7564 21.6317 11.772C21.6317 11.8185 21.6317 11.865 21.6306 11.9116C21.5921 13.7021 20.8264 15.3198 19.6072 16.4989C19.3238 16.773 19.0158 17.0244 18.6853 17.2468C18.3666 17.464 18.0276 17.6553 17.6715 17.8177C16.7753 18.2273 15.7754 18.457 14.7188 18.457C13.5285 18.457 12.4088 18.1663 11.4313 17.6533L11.2666 17.5643L4.72695 14.0082V9.65877L5.67768 10.1749C5.67768 10.1749 5.68196 10.177 5.6841 10.178C5.68624 10.178 5.68838 10.1801 5.69158 10.1811L7.19308 10.9972L12.859 14.0775L12.8622 14.0796L12.8783 14.0879C12.8783 14.0879 12.8804 14.0879 12.8815 14.0899C12.8815 14.0899 12.8836 14.091 12.8847 14.092C14.4065 14.9164 16.3229 14.4064 17.1678 12.9521L17.1903 12.9139C17.2245 12.8601 17.2566 12.8042 17.2865 12.7473C17.5314 12.2974 17.6694 11.7844 17.6694 11.2434V1.91458C17.6694 0.857477 18.5559 0 19.6489 0C20.7419 0 21.6295 0.856443 21.6295 1.91458V11.7233L21.6317 11.7244Z" fill="white"/>
<path d="M16.9037 4.99178V9.34123L15.9658 8.83232L15.9508 8.82405H15.9486C15.9486 8.82405 15.9476 8.82198 15.9465 8.82095C15.9444 8.82095 15.9433 8.81991 15.9412 8.81888L15.9273 8.8106L13.8098 7.65937L8.77802 4.92455C8.77802 4.92455 8.77374 4.92248 8.7716 4.92144C8.76411 4.91731 8.75663 4.91213 8.74807 4.90903C8.74272 4.90696 8.73845 4.90386 8.73417 4.90179C7.2177 4.08672 5.31088 4.59562 4.46602 6.04165C4.46602 6.04371 4.46388 6.04578 4.46281 6.04785C4.46281 6.04889 4.46067 6.05095 4.4596 6.05302L4.44142 6.08302C4.40506 6.14094 4.37084 6.1999 4.33768 6.26093C4.09599 6.7088 3.96017 7.21874 3.96017 7.75557V17.0854C3.96017 17.614 3.73879 18.0929 3.38053 18.4394C3.02227 18.7859 2.52818 19 1.9817 19C0.888724 19 0.00108528 18.1425 0.00108528 17.0854V7.08841H0.00215473C0.0406547 5.29898 0.806377 3.68126 2.02554 2.50106C2.30895 2.22696 2.61695 1.97664 2.9474 1.75322C3.2661 1.53705 3.60511 1.34466 3.96124 1.18226C4.85743 0.77266 5.85736 0.543034 6.91397 0.543034C8.10427 0.543034 9.22397 0.834721 10.2014 1.34672L10.3661 1.43568L16.9058 4.99178H16.9037Z" fill="white"/>
<path d="M15.9466 8.82111L15.951 8.82438L15.9411 8.81784L15.9466 8.82111Z" fill="white"/>
</g>
<defs>
<clipPath id="clip0_265_34">
<rect width="77" height="19" fill="white"/>
</clipPath>
</defs>
</svg>
